<mxfile host="app.diagrams.net" modified="2022-04-18T01:53:31.162Z" agent="5.0 (X11)" etag="T6GG13T-AbZoVRP1_4NQ" version="16.5.6" type="github">
  <diagram id="m-SFcVyp_kCY1AsVOFNg" name="main">
    <mxGraphModel dx="1414" dy="801" grid="1" gridSize="10" guides="1" tooltips="1" connect="1" arrows="1" fold="1" page="1" pageScale="1" pageWidth="850" pageHeight="1100" math="0" shadow="0">
      <root>
        <mxCell id="oZwOjoktmBNg_EINRyxr-0" />
        <mxCell id="oZwOjoktmBNg_EINRyxr-1" parent="oZwOjoktmBNg_EINRyxr-0" />
        <mxCell id="zCELgWN8LcxND_JPKsgQ-0" value="App" style="rounded=1;whiteSpace=wrap;html=1;fontStyle=1;arcSize=5;align=left;verticalAlign=top;spacingLeft=8;spacingTop=8;fontSize=12;fontColor=#333333;strokeColor=#666666;fillColor=#E6E6E6;spacingBottom=16;spacing=8;container=1;dropTarget=1;recursiveResize=0;collapsible=0;" parent="oZwOjoktmBNg_EINRyxr-1" vertex="1">
          <mxGeometry x="770" y="540" width="600" height="430" as="geometry" />
        </mxCell>
        <mxCell id="zCELgWN8LcxND_JPKsgQ-6" value="&lt;div&gt;CartContext&lt;/div&gt;&lt;div&gt;&lt;br&gt;&lt;/div&gt;" style="rounded=1;whiteSpace=wrap;html=1;fontStyle=1;arcSize=5;align=left;verticalAlign=top;spacingLeft=8;spacingTop=8;fontSize=12;fontColor=#333333;strokeColor=#666666;fillColor=#E6E6E6;spacingBottom=16;spacing=8;container=1;dropTarget=1;recursiveResize=0;collapsible=0;" parent="zCELgWN8LcxND_JPKsgQ-0" vertex="1">
          <mxGeometry x="160" y="100" width="380" height="280" as="geometry" />
        </mxCell>
        <mxCell id="zCELgWN8LcxND_JPKsgQ-1" value="Cart" style="swimlane;html=0;startSize=20;childLayout=stackLayout;horizontalStack=0;stackBorder=8;stackSpacing=8;resizeLast=0;resizeParent=1;swimlaneLine=0;swimlaneFillColor=#D1D1D1;dropTarget=1;collapsible=0;container=1;verticalAlign=middle;fontSize=17;fontStyle=1;labelPosition=center;verticalLabelPosition=middle;align=center;rounded=1;arcSize=7;autosize=1;perimeterSpacing=1;horizontal=1;allowArrows=0;fontFamily=Merriweather sans;fontSource=https%3A%2F%2Ffonts.googleapis.com%2Fcss%3Ffamily%3DMerriweather%2Bsans;fontColor=#454545;labelBorderColor=none;strokeColor=#616161;fillColor=#BFBFBF;resizeHeight=1;" parent="zCELgWN8LcxND_JPKsgQ-6" vertex="1">
          <mxGeometry x="50" y="60" width="290" height="190" as="geometry" />
        </mxCell>
        <mxCell id="zCELgWN8LcxND_JPKsgQ-2" value="total" style="rounded=1;whiteSpace=wrap;html=1;fontSize=12;startSize=0;align=left;labelPosition=center;verticalLabelPosition=middle;verticalAlign=top;shadow=0;fontFamily=Merriweather sans;fontStyle=0;strokeColor=#666666;fillColor=#f5f5f5;arcSize=9;spacingTop=0;spacingLeft=0;fontSource=https%3A%2F%2Ffonts.googleapis.com%2Fcss%3Ffamily%3DMerriweather%2Bsans;fontColor=#333333;spacing=8;autosize=1;" parent="zCELgWN8LcxND_JPKsgQ-1" vertex="1">
          <mxGeometry x="8" y="28" width="274" height="40" as="geometry" />
        </mxCell>
        <mxCell id="zCELgWN8LcxND_JPKsgQ-3" value="toppings" style="rounded=1;whiteSpace=wrap;html=1;fontSize=12;startSize=0;align=left;labelPosition=center;verticalLabelPosition=middle;verticalAlign=top;shadow=0;fontFamily=Merriweather sans;fontStyle=0;strokeColor=#666666;fillColor=#f5f5f5;arcSize=9;spacingTop=0;spacingLeft=0;fontSource=https%3A%2F%2Ffonts.googleapis.com%2Fcss%3Ffamily%3DMerriweather%2Bsans;fontColor=#333333;spacing=8;autosize=1;" parent="zCELgWN8LcxND_JPKsgQ-1" vertex="1">
          <mxGeometry x="8" y="76" width="274" height="40" as="geometry" />
        </mxCell>
        <mxCell id="zCELgWN8LcxND_JPKsgQ-4" value="type" style="rounded=1;whiteSpace=wrap;html=1;fontSize=12;startSize=0;align=left;labelPosition=center;verticalLabelPosition=middle;verticalAlign=top;shadow=0;fontFamily=Merriweather sans;fontStyle=0;strokeColor=#666666;fillColor=#f5f5f5;arcSize=9;spacingTop=0;spacingLeft=0;fontSource=https%3A%2F%2Ffonts.googleapis.com%2Fcss%3Ffamily%3DMerriweather%2Bsans;fontColor=#333333;spacing=8;autosize=1;" parent="zCELgWN8LcxND_JPKsgQ-1" vertex="1">
          <mxGeometry x="8" y="124" width="274" height="40" as="geometry" />
        </mxCell>
      </root>
    </mxGraphModel>
  </diagram>
</mxfile>
